# xmcd
#
# Track frame offsets: 
#        150
#        17165
#        33408
#        53077
#        72771
#        95435
#        114374
#        125496
#        146097
#        173423
#        210304
#        246123
#        265083
#
# Disc length: 3809 seconds
#
# Revision: 0
# Processed by: cddbd v1.5.2PL0 Copyright (c) Steve Scherf et al.
# Submitted via: ExactAudioCopyFreeDBPlugin 1.0
#
DISCID=aa0edf0d
DTITLE=Chris Rea - On The Beach
DYEAR=2019
DGENRE=Blues
TTITLE0=Look Out For Me (Special Mini Album)
TTITLE1=Let's Dance (B Side)
TTITLE2=Hello Friend (Re-record)
TTITLE3=On The Beach (Special Remix)
TTITLE4=If Anybody Asks You (B Side)
TTITLE5=Freeway [CD Bonus Track)
TTITLE6=Bless Them All (B Side)
TTITLE7=Crack That Mould (Special Mini Album)
TTITLE8=On The Beach (Special Extended Remix)
TTITLE9=It's All Gone (Live At Montreux 1986)
TTITLE10=Steel River (Live At Montreux 1986)
TTITLE11=It's All Gone (Single Edit)
TTITLE12=Driving Home For Christmas (First Version)
EXTD=
EXTT0=
EXTT1=
EXTT2=
EXTT3=
EXTT4=
EXTT5=
EXTT6=
EXTT7=
EXTT8=
EXTT9=
EXTT10=
EXTT11=
EXTT12=
PLAYORDER=
